<?xml version="1.0" encoding="iso-8859-1"?>
<!-- Generator: Adobe Illustrator 18.1.1, SVG Export Plug-In . SVG Version: 6.00 Build 0)  -->
<svg version="1.1" id="Capa_1" xmlns="http://www.w3.org/2000/svg" xmlns:xlink="http://www.w3.org/1999/xlink" x="0px" y="0px"
	 viewBox="0 0 257.616 257.616" style="enable-background:new 0 0 257.616 257.616;" xml:space="preserve">
<g>
	<path d="M128.819,0c-44.845,0-81.33,36.48-81.33,81.325c0,15.289,4.302,30.209,12.434,43.137
		c2.97,4.732,6.554,11.52,7.653,15.327l11.466,39.738c1.159,3.998,3.476,7.582,6.467,10.481c-0.87,1.566-1.414,3.34-1.414,5.26
		v38.373c0,6.005,4.873,10.878,10.878,10.878h5.515c-0.354,0.979-0.587,2.002-0.587,3.079c0,5.532,4.879,10.019,10.878,10.019
		h36.066c6.01,0,10.878-4.487,10.878-10.019c0-1.082-0.234-2.105-0.571-3.079h5.493c6.01,0,10.878-4.873,10.878-10.878v-38.373
		c0-1.724-0.441-3.34-1.153-4.786c3.269-3.024,5.793-6.826,6.978-11.139l10.856-39.645c1.055-3.845,4.563-10.563,7.479-15.202
		c8.142-12.929,12.445-27.853,12.445-43.164C210.127,36.485,173.653,0,128.819,0z M179.266,112.904
		c-1.267,2.018-7.707,12.51-10.046,21.033l-10.856,39.645c-0.201,0.734-1.697,1.876-2.458,1.882h-53.341
		c-0.81,0-2.399-1.207-2.622-1.974l-11.466-39.738c-2.404-8.327-8.855-18.83-10.128-20.864c-5.956-9.464-9.105-20.38-9.105-31.563
		c0-32.847,26.722-59.569,59.574-59.569c32.836,0,59.552,26.722,59.552,59.569C188.371,92.524,185.227,103.446,179.266,112.904z"/>
</g>
<g>
</g>
<g>
</g>
<g>
</g>
<g>
</g>
<g>
</g>
<g>
</g>
<g>
</g>
<g>
</g>
<g>
</g>
<g>
</g>
<g>
</g>
<g>
</g>
<g>
</g>
<g>
</g>
<g>
</g>
</svg>
